<svg xmlns="http://www.w3.org/2000/svg" width="206.483" height="193.779"><defs><style>.a{fill:#fed900}</style></defs><path class="a" d="M150.388 89.379c-4.85 2.025-9.619 1.251-14.4-.306-5.471-1.8-11.05-2.915-16.809-1.674-4.634 1.008-5.831 2.4-6.3 6.965a37.19 37.19 0 00.9 11.023c.567 2.933 2.933 4.157 6.209 3.347a31.755 31.755 0 009.79-4.337c13.848-9.1 28.794-15.81 44.46-21.11 11.239-3.806 22.5 1.1 27.895 11.7a35.732 35.732 0 013.842 13.146 125.888 125.888 0 01.351 17.475 8.66 8.66 0 01-2.9 6.551c-.7.558-1.971 2.493-2.834-.351a1.422 1.422 0 00-2.7.351 10.474 10.474 0 01-5.84 8.1c-3.356 1.8-7.01 1.512-10.528 1.053a25.537 25.537 0 01-9.781-3.329c-1.08-.648-1.953-1.674-2.7.468-.693 1.989-2.052.6-2.969.117-6.56-3.437-8.1-5.858-9.322-14.271a2.025 2.025 0 00-.621.072c-1.269.513-1.458 3.239-3.077 2.286-1.4-.828-.594-2.879-.216-4.382 2.34-9.3 12.076-16.692 20.183-15.243 1.125.207 2.7-.333 2.7 2.25 0 1.3 3.014 1.35 4.391.774 1.539-.639.09-1.89-.4-2.7a7.55 7.55 0 00-3.284-2.8c-.666-.324-1.656-.468-1.512-1.5a2.322 2.322 0 011.8-1.8 6.524 6.524 0 017.289 2.1c2.789 3.284 4.238 7.046 2.987 11.9 1.62-1.494 2.412-1.116 3.041.5 2.043 5.246 0 8.269-5.669 7.963a10.987 10.987 0 00-5.246.9c-1.674.765-3.338 1.368-5.093.216-.495-.333-1.08-.558-1.422.081a1.629 1.629 0 00.153 1.242 5.21 5.21 0 006.785 2.358c3.455-1.8 6.776-3.068 10.87-1.98 2.277.612 3.311-1.863 3.6-3.6 1.215-8.1-.117-15.612-5.183-22.235-2.618-3.41-6.614-2.87-9.952-2.537-12.912 1.269-24.556 6.047-34.193 14.829-4.319 3.932-9.565 5.147-14.73 6.857a62.6 62.6 0 00-6.056 1.971 9.2 9.2 0 00-5.849 8.629 80.138 80.138 0 01-1.323 10.654c-.9 5.255-3.932 8.7-9.376 9.619-2.978.5-5.975.9-9 1.3-.621.09-1.512 0-1.53.9 0 .765.729 1.062 1.386 1.206a28.379 28.379 0 003.941.738c1.9.162 3.833 0 5.7.225 8.539 1.26 15.225-1.593 20.543-8.413 3.329-4.265 7.828-6.6 13.5-5.984 3.329.36 6.7.4 10.033.819 2.385.306 4.85 1 4.67 4.184s-2.627 3.536-5.093 3.6c-2.8.063-5.6-.063-8.4 0-1.386 0-3.356-.207-3.374 1.8s1.989 1.8 3.329 2.043c1.539.279 3.131.234 4.679.486s3.077.981 3.311 2.834-1.152 2.816-2.529 3.6a8.148 8.148 0 01-5.246.522c-1.557-.216-3.086-.549-4.643-.7a1.872 1.872 0 00-2.115 1.3c-.306.99.558 1.386 1.134 1.845 1.8 1.431 4.049 1.854 6.137 2.636 2.574.963 6.038 1.584 5.3 5.318-.7 3.536-4.067 3.338-6.866 3.248-7.37-.243-14.253-2.7-21.173-4.9-6.587-2.061-12.5-2.178-18.9 1.62-8.719 5.2-18.068 9.4-28.515 10.114a37 37 0 01-10.015-.828c-3.932-.8-6.02-3.662-7.3-7.2a35.264 35.264 0 01-1.312-5.204c-1.5-7.5-2.78-8.62-10.42-8.917-3.257-.126-4.2 1.2-3.077 4.373 1.44 4.076 4.256 7.352 6.551 10.915 3.041 4.742 3.086 5.165-.45 9.331q-2.5 2.951-4.985 5.9a12.013 12.013 0 01-8.422 4.319c-1.521.135-3.068-.18-3.869-1.521-.954-1.584.81-2.286 1.548-3.284a4.966 4.966 0 01.765-.657c.567-.531 1.3-1.08.639-1.944s-1.4-.486-2.133-.126c-1.5.747-2.987 1.512-4.5 2.241-2.079 1.017-3.734.306-4.958-1.449s.6-2.475 1.512-3.455a7.864 7.864 0 00.9-.963c.63-.954 2.358-1.656 1.566-2.978s-2.367-.666-3.6-.117a1.116 1.116 0 01-.324.1c-1.746.162-4.058 1-4.9-.837-.747-1.656 1.3-2.879 2.582-3.878 7.586-5.921 7.532-5.858 2.3-13.713-2.475-3.725-4.778-7.586-6.947-11.491-2.546-4.58-1.989-8.152 1.665-11.86 1.575-1.593 3.32-3 4.958-4.5 7.334-6.866 15.972-3.446 20.7 2.592 2.079 2.636 4.148 5.291 6.3 7.828.63.729 1.395 2.331 2.609 1.3.981-.846-.4-1.746-.837-2.547-.63-1.179-1.476-2.25-2.1-3.428-3.815-7.352-3.347-14.4 1.476-21.191 6.7-9.475 15.243-16.971 24.835-23.314a103.48 103.48 0 0112.216-7.042c6.389-3.068 10.24-1.3 12.238 5.489 1.287 4.346 1.665 8.872-.072 13.209-2.618 6.524-14.343 8.512-19.337 3.329a3.331 3.331 0 01-.261-4.859c1.386-1.539 3.086-1.665 4.778-.252.8.675 1.683 2.088 2.762.9s-.261-2.223-1.062-3.059c-2.223-2.34-4.9-1.89-7.487-.9-2.816 1.08-3.959 3.437-4.175 6.3s1.638 4.112 3.734 4.994c5.75 2.394 11.788 2.52 17.8 1.5 2.906-.495 4.5-2.807 5.138-5.642a36.83 36.83 0 00-.279-18.608c-1.323-4.751-4.76-6.686-9.664-6.3-6.164.54-11.266 3.5-16.2 6.794-7.316 4.994-14.964 9.4-23.5 12.013-6.416 2-11.419.3-15.756-4.949a80.426 80.426 0 01-10.377-16.42c-3.014-6.236-7.666-9-14.5-8.431a15.027 15.027 0 01-6.956-.7c-2.2-.9-3.743-2.295-3.374-4.769.4-2.7 2.744-2.142 4.562-2.241 1.332-.072 2.7.108 4.013 0 .846-.063 2.007 0 2.187-1.134s-.9-1.377-1.746-1.656c-1.584-.558-3.194-1.026-4.8-1.53a4.724 4.724 0 01-3.6-4.688c0-2.627 2.079-3.482 4.238-4 2.7-.657 5.345.045 7.918.837 1.026.315 2.133.666 2.7-.4s-.54-1.8-1.278-2.376a171.154 171.154 0 00-7.109-5.039c-2.088-1.4-3.14-3.221-2.475-5.7s2.54-3.029 4.869-3.173a11.293 11.293 0 019.061 3.32 55.267 55.267 0 0115.09 24.592c1.593 5.255 2.681 10.654 6.812 14.784 4.5 4.5 9.457 6.686 16.062 4.9a131.582 131.582 0 0017.61-6.443 5.237 5.237 0 00.9-.486c1.8-1.3 4.418-2.591 3.8-4.976s-3.491-1.224-5.327-1.2c-5.561.09-10.933-.414-15.963-3.059a17.556 17.556 0 01-7.382-6.658 35.66 35.66 0 00-5-7.127 3.6 3.6 0 01-.3-4.922c1.062-1.548 2.618-1.8 4.5-1.287a92.763 92.763 0 0121.6 9.052c4.5 2.52 8.755 2.1 13.191.216.639-.27 1.4-.495 1.386-1.251a1.8 1.8 0 00-1.562-1.581 2.7 2.7 0 00-1-.1c-6.83.9-12.742-1.746-18.518-4.85-5.075-2.7-10.744-3.8-16.062-5.831-10.8-4.13-13.7-11.635-8.188-21.8a20.858 20.858 0 018.791-9c8.494-4.31 15.648-2.133 19.688 6.578 2.555 5.534 5.165 10.978 9.709 15.207 8.557 7.909 18.4 10.33 29.469 6.3 7.846-2.879 12.247-13.254 9.9-22.631a42.615 42.615 0 00-5.633-12.873c-1.359-2.106-.72-2.915 1.449-3.437 16.044-3.86 30.36-.108 43.308 9.736.6.459 1.5.972 1.089 1.8-.216.441-1.134.666-1.8.765-13.713 2.16-16.116 4.724-17.43 18.662-.1 1.008-.171 2.016-.3 3.014-.288 2.385.423 3.914 3.122 4.067 2.4.135 3.788 1.467 4.427 3.86 2.51 9.349-2.106 20.75-10.384 25.645a11.77 11.77 0 01-7.765 1.395c-2.379-.287-4.379-1.133-4.879-3.807-.333-1.8-1.647-1.953-3.023-1.9s-1.917 1.008-2.277 2.151c-.486 1.548.468 2.3 1.656 2.852 4.76 2.223 9.547 4.382 14.748 5.4a8.233 8.233 0 008.2-2.7c7.082-7.9 11.5-16.989 12.067-27.733.243-4.589.5-9.187.567-13.776.1-7.073 3.941-11.41 10.015-14.172 7.684-3.491 15.837-3.6 24.043-3.2a1.656 1.656 0 011.8 1.881 2.565 2.565 0 01-2.295 2.816c-2.421.477-4.859.846-7.2 1.485-.9.261-2.43.513-2.178 2.07.216 1.323 1.44 1.152 2.43 1.251 1.89.171 3.779.369 5.678.531 1.233.117 2.627.045 2.7 1.8a2.511 2.511 0 01-2.609 2.87c-2.349.09-4.634.783-7.019.459-1.143-.162-2.816-.387-2.942 1.287-.09 1.26 1.152 2.169 2.439 2.385 2.421.4 4.868.639 7.3.981 1.539.225 3.374.288 3.329 2.466s-1.665 2.7-3.41 3.077a38.107 38.107 0 01-11.032.4c-4.13-.36-6.38 1.17-7.118 5.309-.594 3.293-.549 6.695-.99 10.024-1.52 11.486-4.903 22.273-12.079 31.586-2.056.549-3.235 2.69-5.413 3.149z"/><path class="a" d="M115.538 22.613c-.162 9.133-6.776 15.954-15.081 16.368-12.6.621-21.875-5.174-26.824-16.7-.765-1.8-.675-3.149.729-4.5a49.949 49.949 0 0126.923-14.19 6.344 6.344 0 015.4 1.4 23.366 23.366 0 018.853 17.622z"/><path d="M150.388 89.379c1.521-1.575 2.8-3.545 5.4-3.221-1.33 1.818-2.539 3.914-5.4 3.221z" fill="#ead309"/><path d="M98.9 14.937c5.165.207 7.954 3.131 7.675 8.1a7.307 7.307 0 01-7.972 7.2c-5.2-.243-8.485-3.338-8.224-7.756.269-4.7 3.698-7.733 8.521-7.544z" fill="#00a01f"/><path d="M98.504 27.832c-3.545 0-5.336-1.611-5.4-4.877-.063-3.536 2.007-5.624 5.579-5.6 3.4 0 5.4 1.8 5.471 4.967.081 3.44-2.042 5.51-5.65 5.51z" fill="#fdd901"/></svg>