<svg xmlns="http://www.w3.org/2000/svg" width="265.235" height="193.247"><defs><style>.c{fill:#c10016}</style></defs><path d="M23.648 50.944c6.6-13.38 15.43-25.29 24.93-36.67 5-6 10.5-11.73 18.74-13.52 11.09-2.4 19.58.91 25.88 10.25a39.47 39.47 0 016 15.19 17.15 17.15 0 01-2.7 12.52 77.349 77.349 0 01-13.72 16.2c-5.7 5.18-7.9 11.79-8.22 19.26 1.68.42 2.6-.62 3.73-1 22-7.7 43.12-6 63 6.37 4.29 2.66 7.92 6.43 11.61 10a9.46 9.46 0 007 2.85c5.87 0 11.51-.6 15.91-5 3.61-3.6 3.58-6.81-.18-10.24-3.5-3.18-6.32-6.7-7.37-11.4a5.41 5.41 0 00-2.26-3.35c-6.94-5-13.46-10.74-22-13.12a22.47 22.47 0 01-4.75-2.14c-1.58-.87-2.85-2.07-2.6-4.14a5.07 5.07 0 013.17-4.29 10.49 10.49 0 0110.69.76c7.05 4.88 15 7 23.33 8.39a3.36 3.36 0 003.16-.73c0-1-.9-1-1.53-1.18a15 15 0 01-9.35-6.95c-3.91-6.13-5.46-6.59-12-3.74-2.14.93-3.67.72-4.74-1.23a14.92 14.92 0 00-5.77-5.68 6.55 6.55 0 01-2.9-4.61c-.65-3.07.82-4.85 4-4.75a10.45 10.45 0 013.65.67c9.95 4.28 20.6 4.36 31.11 5.4 5.19.51 10.35 1.26 15.49 2.14a38.77 38.77 0 015.93 2 53.688 53.688 0 011.21-5.66 22.258 22.258 0 012.14-3.76 19.54 19.54 0 00-11 2.44c-2.77 1.66-5.51 2.25-8.53 1.23-7.31-2.46-15.14-1-22.5-3.11-4-1.11-8-2-12-3-1.67-.45-3.66-1-3.72-3.11-.06-2.31 2-3 3.76-3.55a74.63 74.63 0 0114.75-2.58c14.18-1.37 28.35-2 42.31 1.87 10.36 2.88 19.35 7.91 25.85 16.72a7.44 7.44 0 004.62 2.82 74.23 74.23 0 0122.05 8.92c3.11 1.92 3.06 3.19-.11 5-2.17 1.21-4.42 2.3-6.7 3.29-8.4 3.68-14 10.47-19.67 17.69 4.07 1.64 8.29 1.17 12.38 1.58 1.37.15 3.9-1 3.85 1.39 0 1.77-2.47 1.73-4 1.75a94.271 94.271 0 01-13.44-.38c-3.51-.46-9 6.07-8.07 9.43.33 1.12 1.31 1.48 2.16 1.9a69.34 69.34 0 0010.63 4.57c2.2.65 4.43 1.37 5.89 3.5-1.44 1.28-2.84.49-4 .18-4.93-1.28-10-2.42-14.52-4.77-3.25-1.69-4.82-.48-6.11 2.28a36.71 36.71 0 00-3.62 16.26c.11 7.06.94 13.64 7.08 18.77 4.66 3.89 4.75 11.32 1.1 17.59a18.54 18.54 0 00-2.45 12.18c.46 3.36 1.69 4.05 4.82 2.74a86 86 0 0014.59-7.52 25.411 25.411 0 016.56-3.48c7-2.06 9-.75 11.32 4.18 2.24 4.72 4.63 9.36 6.55 14.23 1.52 3.87 1.37 7.8.6 11.76a5.12 5.12 0 01-3 4c-2.55 1.13-4 .23-3.5-2.52a30.491 30.491 0 00.25-7.07c-.14-2.11-1.49-3.84-3.57-3.4-2.39.49-1.36 2.59-.68 4 2.15 4.36.41 8.81.3 13.17-.05 1.94-2.44 3.25-4.6 2.9s-2-2.3-1.53-3.91c.92-3.51.17-6.93-.44-10.35-.37-2.13-1.74-4-4-3.74s-1.76 2.64-1.78 4.32c0 3.24-.05 6.47.09 9.7a9.58 9.58 0 01-2.69 7.12c-1.32 1.44-2.76 3.61-4.9 1.95a4 4 0 01-.59-6c2.62-3 2.51-6.37 2.19-9.85-.19-2.08-1-3.83-3.33-4.43s-3.87.36-5.22 2c-2.65 3.22-3.91 7.19-5.74 10.85s-3.41 7.22-6.19 10.16c-2.44 2.6-4.21 2.34-6.3-.57-4.58-6.39-4.7-14.05-6.16-21.31-.71-3.49-1.71-6.79-4-9.54s-5.52-2.8-6.66-.06c-4.3 10.35-13.3 12.25-22.77 12.23-18.09 0-34.09-6.22-47.83-18.09-5.09-4.4-8.75-10.25-14.53-13.92-.63-.4-1.18-.92-1.8-1.33-4.7-3.15-7.33-2.13-8.47 3.37-1 4.63-1.89 9.26-2.7 13.92-1.15 6.51-4.74 11.75-8.87 16.59-2.89 3.39-7 2.86-10.8 1.92-4.83-1.18-9.44-3.1-14.31-4.25-3.94-.92-6.41.4-8.59 3.47-1.36 1.91-2.25 5.23-5.34 4.32-3.4-1-1.84-4.4-2-6.82a10.87 10.87 0 011.24-6.14c.6-1.11.91-2.44-.25-3.41-1-.83-2.16-.45-3.19 0-2 .93-3.95 2.15-6 2.89-2.6.93-5.75 1.78-7.4-1.15s.79-5.1 3-6.81c1.36-1.07 2.95-1.84 4.39-2.82 2.29-1.55 2.15-3.09-.34-4.34-2.22-1.11-4.5-2.13-6.67-3.34a4.51 4.51 0 01-2.3-5.42c.66-2.42 2.83-3.06 5.05-3 5 .16 9.36 2.37 13.79 4.34 4.67 2.08 9.19 4.28 14.6 4 6.72-.4 10.37-4.66 9.1-11.37-.68-3.57-2.29-6.83-3.68-10.15-4.36-10.36-6.14-21-3.19-32.07 1.26-4.76 3.06-9.23 6.69-12.72a3.13 3.13 0 001-3.24c-2-12.36 1.6-23 11-31.21 4.94-4.3 9.27-8.69 9.9-15.55s-2.93-11.7-7.89-15.59c-4.51-3.55-9.63-4.53-15-1.72-3.45 1.78-6.81 3.76-9.35 6.72-7.7 9-15.57 17.84-22.24 27.63-10.4 15.09-9.97 26.84 1.34 41.26 2.91 3.71 6.21 7.12 9.37 10.64.94 1 1.93 2.11 1.3 3.61-.72 1.69-2.32 1.24-3.61 1-7-1.07-12.84-4.66-18.4-8.67-11.06-8-18.56-19-25.37-30.5-2.12-3.58-1.87-7 0-10.94 5.81-12.41 14.77-22.31 24.77-31.41.88-.8 1.86-2 3.21-.88s.87 2.51.36 3.8a125.851 125.851 0 00-6.84 24.76c-.53 1.28-.43 1.47.65 1.36z" fill="#fed900"/><path d="M23.648 50.944c-.12.61-.47 1.35-1.06.83s-.18-1.51.36-2.19z" fill="#dd9309"/><path class="c" d="M74.248 109.314a21.38 21.38 0 0111.57 5.76 3.36 3.36 0 011.18 2.66 24 24 0 01-5.46 14c-1.38 1.61-2.68.69-3.34-.49-3.47-6.16-7.2-12.24-8.09-19.45-.26-2.07.59-2.57 4.14-2.48zM103.558 80.454c1.37.28 3.77-.43 4.62 1.54s-.88 3.47-2 4.92c-2.22 2.92-5.26 4.89-8.32 6.78-1.82 1.12-3.4.84-4.91-.87-5.78-6.55-5.31-8.39 2.93-11a23.51 23.51 0 017.68-1.37zM141.588 113.114c-2.59-.22-6 1.41-7.15-.68-1.27-2.27 1.4-4.69 2.91-6.78 1.31-1.8 2.61-3.63 4.08-5.3 1.8-2 3.66-1.73 5.33.28a2.37 2.37 0 01.23.3c1.87 3 5.06 6.14 3.54 9.71s-6.06 1.44-8.94 2.47zM186.998 92.664c-1 4.28-2.55 8.42-5.8 11.73-1.16 1.18-2.11 1-3-.26-.36-.5-.8-.95-1.12-1.48-1.41-2.32-4.14-4.26-4.19-6.88-.05-2.87 3.77-3.38 5.38-5.45a4.76 4.76 0 011.27-1.32c1.41-.75 1.63-3.88 3.71-2.68a8.18 8.18 0 013.75 6.34zM181.498 124.174a7.891 7.891 0 011.47.2c3.34 1.13 7.35 1.36 8.81 5.34.75 2-4.72 9.81-7.36 11.16-1.38.71-2.18.28-2.51-1.06-1.08-4.33-2.17-8.67-3.08-13-.39-1.95.79-2.81 2.67-2.64zM213.058 173.414a23.09 23.09 0 01-5.22-12.71 109.717 109.717 0 01-.24-11.9c0-.69-.21-1.64.67-1.94 1.11-.38 1.53.62 1.88 1.36 3.77 7.89 7.6 15.78 2.91 25.19zM216.768 25.524c4.21 3.61 6.69 7.45 7.59 12.26.13.7.62 1.52-.13 2.07a1.93 1.93 0 01-2.11-.23c-2.17-1.23-4.3-2.52-6.45-3.77-.94-.54-1.21-1.2-.5-2.1 1.77-2.23 1.45-4.92 1.6-8.23zM78.378 157.344c.31-2.22 0-4.75 3.35-4.84 1.44 0 2.59.36 2.27 2.07-.47 2.54-1.62 5.09-4.13 5.72-2.05.52-1.06-1.89-1.49-2.95zM143.808 132.584a10.63 10.63 0 012.59 7.6c-3.73-1.76-4.4-3.85-2.59-7.6z"/></svg>