<svg xmlns="http://www.w3.org/2000/svg" width="146.5" height="196.277"><defs><style>.a{fill:#fed900}.c{fill:#fdd901}.e{fill:#fdd801}.f{fill:#000fc1}.p{fill:#51826f}</style></defs><path class="a" d="M38.528 160.954a16.531 16.531 0 00-.59-1.594c-1-2.108-2.115-2.046-3.495-.261-2.215 2.859-2.675 2.882-4.445-.5-2.016-3.832-4.706-6.177-9.335-6.285-3.434-.084-4.514-2.391-3.135-5.541 5.656-12.914 15.083-21.3 28.994-24.418 10.408-2.3 20.816-3.311 31.423-1.019 9.281 2 16.355 7.128 22.318 14.332a41.21 41.21 0 018.99 18.509c.322 1.6 1.249 1.985 2.705 1.632a6.752 6.752 0 003.556-2.238 60.646 60.646 0 0118.1-14.255c8.316-4.208 10.431-4.024 12.063 5.9a53.12 53.12 0 01-7.059 37.133c-5.074 8.431-8.431 8.821-15.658 2.384-3.663-3.257-6.392-7.327-9.4-11.121-2.131-2.69-4.162-3.066-7.112-2.054a231.15 231.15 0 01-22.82 6.395c-5.472 1.3-11.159 1.533-16.493 3.449-1.579.567-2.445-.628-3.441-1.464-2.154-2.3-4.545-1.916-7.02-.659-3.449 3.725-7.373 2.238-11.435 1.3a77.821 77.821 0 01-25.4-10.607c-4.6-3.027-7.427-7.059-7.771-12.6-.222-3.472 1.2-4.69 4.644-4.246 1.694.215 3.357.651 5.043.874a7.741 7.741 0 016.407 4.6 14.363 14.363 0 001.885 2.851c2.345 2.851 2.414 2.866 4.721.061 1.2-1.464 2.184-1.2 3.219.1.694.215.732-.122.541-.658zM20.77 49.762c-.445-.146-.889-.314-1.349-.429-3.181-.766-3.947-2.453-2.629-5.488 5.825-13.42 15.865-21.46 30.2-24.571 9.327-2.008 18.547-3.027 28.012-1.088 17.934 3.663 28.173 15.167 33.17 32.113.935 3.158 2.56 3.832 5.2 1.732a43.334 43.334 0 003.832-3.832A57.205 57.205 0 01135.6 35.27c5.557-2.453 7.442-1.594 8.706 4.376 3.119 14.654.881 28.518-7.289 41.141-4.637 7.174-7.71 7.358-14.217 1.87-3.832-3.234-6.415-7.542-9.718-11.228s-3.273-3.832-8.239-2.3a231.182 231.182 0 01-25.434 6.753c-3.924.766-7.894 1.334-11.818 2.108a4.323 4.323 0 01-4.537-1.533c-2.491-2.8-3.97-3.066-6.744-.376-3.227 3.135-6.377 3.173-10.546 2.154-9.34-2.3-18.226-5.442-26.34-10.684-4.039-2.606-6.9-5.924-7.971-10.73-1.157-5.181.3-6.9 5.58-6.407.383 0 .766.046 1.142.069a6.6 6.6 0 002.261.169 6.788 6.788 0 016.967 3.9 20.371 20.371 0 002.69 4.008c.912 1.081 1.824 1.3 2.79.046s1.947-1.816 4.024-.943c-1.648-1.3-2.422-.9-3.372.092-1.793 1.885-2.636 1.74-4.323-.291a6.9 6.9 0 01-1.065-1.671 8.431 8.431 0 00-6.53-5.319 1.4 1.4 0 01-.843-.713z"/><path class="a" d="M88.95 116.294c-.077 1.242-.23 2.476-.23 3.717 0 2.491-1.065 3.2-3.357 2.253-13.205-5.472-26.618-4.706-40.038-1.088-2.759.766-3.388 0-3.265-2.506.084-1.9-.092-3.832.077-5.71.146-1.763.881-2.866 3.066-2.008 1.847.766 3.962 1.9 5.679 1.533s1.816-3.2 2.966-4.775c4.208-5.756 2.805-5.541 8.124-1.18 1.533 1.234 2.774 3.686 4.514 3.487 1.533-.176 2.751-2.407 4.108-3.732 5.143-5.02 5.58-4.959 8.638 1.257.245.514.506 1.027.766 1.533 2.092 4.123 2.123 4.2 6.277 2.437 1.893-.766 2.675-.406 2.659 1.625v3.142zM41.241 13.802c-.207-6.407.33-6.9 6.476-4.744 2.215.766 3.579.851 4.522-1.717.644-1.878 2.054-3.464 2.943-5.265s1.885-1.748 3.226-.537c1.833 1.663 3.771 3.219 5.557 4.936 1.111 1.073 1.839 1.211 2.958-.061a37.248 37.248 0 015.84-5.465c1.816-1.341 3.066-1.479 3.993 1.027.874 2.3 2.253 4.4 3.273 6.66.674 1.479 1.288 1.924 2.981 1.134 5.043-2.361 5.365-2.085 5.112 3.549-.291 7.227-.261 7.143-7.143 4.905-11.787-3.832-23.621-3.342-35.454-.146-4.139 1.127-4.139 1.15-4.284-3.158-.016-.352 0-.766 0-1.118zM134.077 118.885a42.348 42.348 0 00-6.645 3.694c-5.166 4.024-8.952 8.844-8.852 15.788a2.215 2.215 0 01-1.816 2.437c-2.43.766-4.982 1.3-7.212 2.621-1.226.766-1.87.2-2.514-.843a63.957 63.957 0 00-8.024-10.186c-1.05-1.119-1.341-1.533.368-2.6a83.079 83.079 0 0127.721-10.891 13.033 13.033 0 016.974-.02z"/><path d="M107.145 28.417c2.92-.536 5.219-.981 7.534-1.38.536-.092 1.211-.376 1.571.2s0 1.1-.322 1.594a17.9 17.9 0 01-3.832 4.4c2.567.414 4.752.766 6.936 1.111.429.077 1.027-.084 1.226.475.261.7-.307 1.1-.766 1.357a87.423 87.423 0 01-10.661 5.564c-1.226.513-1.832-.176-2.422-1.257a54.416 54.416 0 00-7.733-10.96c-.766-.82-1.2-1.609-.061-2.3a46.549 46.549 0 0112.171-6.055z" fill="#fdd900"/><path class="c" d="M94.614 81.867v4.8c0 1.349-.575 1.916-1.678 1.05-3.434-2.69-5.15-6.5-6.438-10.523-.276-.843.483-1.173 1.127-1.364q6.009-1.77 12.048-3.495a2.039 2.039 0 012.3.766c1.472 1.985 2.882 4.016 4.284 6.055a1.2 1.2 0 01.176 1.019c-.276.452-.8.345-1.28.215-1.249-.345-2.353-1.18-3.832-1.15 1 2.445 2.016 4.759 2.889 7.128.268.72 1.058 1.717.161 2.3s-1.809-.284-2.476-.881c-2.253-2.016-4.721-3.794-6.576-6.239zM46.544 88.005c3.755-4.277 7-8.362 11.289-11.435.9-.644 2.016-1.058 2.9-.253 3.955 3.564 7.02 7.863 10.408 12.439-2.636.337-4.116-1.088-5.748-1.893-2.092-1.027-3.326-.9-3.832 1.663a21.066 21.066 0 01-2.9 6.5c-.353.605-.536 1.732-1.433 1.533s-.858-1.311-.92-2.161c-.146-1.9-.383-3.832-.46-5.7s-.667-2.5-2.652-1.816-3.809 1.801-6.652 1.123zM98.799 194.001a8.846 8.846 0 01-1.533-.966 38.911 38.911 0 01-8.844-11.443c-.835-1.717-.621-2.828 1.426-3.4 3.663-1.035 7.281-2.184 10.906-3.326a2.046 2.046 0 012.667.927 1.74 1.74 0 01-.268 2.529c-4.131 3.778-4.461 8.538-3.533 13.642.29 1.754.16 1.999-.821 2.037z"/><path d="M63.007 180.681c.766 1.64 1.586 3.242 2.246 4.92.4 1.035.445 2.154-1.088 2.391a28.572 28.572 0 00-16.317 8.285c.192-6.9 3.755-11.841 8.952-15.834a2.238 2.238 0 00.989-.95 2.951 2.951 0 013.288-1.594c1.409.311 1.769 1.502 1.93 2.782z" fill="#fcd801"/><path class="e" d="M7.151 47.47C3.495 47.524 0 44.583 0 41.5c0-2.575 3.15-4.959 6.629-5s6.545 2.506 6.576 5.426-2.743 5.537-6.054 5.544zM7.94 150.147c-3.674-.015-7.174-2.989-7.174-5.985 0-2.491 3.365-4.943 6.752-4.959 3.526 0 6.461 2.491 6.461 5.518s-2.613 5.449-6.039 5.426z"/><path class="f" d="M20.77 49.762c3.472-.207 5.748 1.533 7.381 4.43.521.912 1.019 1.832 1.571 2.721.989 1.586 1.839 2.3 3.273.184 2.115-3.066 3.066-2.92 4.522.429.406.912 1.142 1.77.9 2.958-.812-.153-.881-.912-1.219-1.372-1.311-1.8-2.606-1.97-3.633.123-1.288 2.629-2.483 2.054-3.832.13-.437-.621-1.15-1.111-1.41-1.786-1.816-4.637-5.526-6.484-10.14-7.082.874-.168 1.859-.007 2.587-.735z"/><path d="M10.208 131.646c1.533 0 2.728.575 2.659 2.077-.084 1.878-1.632 2.483-3.227 2.483-1.257 0-2.659-.536-2.56-2.062.116-1.847 1.734-2.237 3.128-2.498z" fill="#f2d308"/><path d="M8.987 33.445c-1.3-.092-2.667-.33-2.713-1.878-.046-1.916 1.533-2.453 3.066-2.644 1.326-.161 2.621.429 2.675 1.885.094 1.901-1.428 2.43-3.028 2.637z" fill="#f7d505"/><path d="M38.526 160.953a3.656 3.656 0 011.019 2.744 4.116 4.116 0 01-1.571-2.115z" fill="#266c8b"/><path class="f" d="M59.466 157.704c.115-3.74 1.019-6.469 3.165-8.722a5.039 5.039 0 015.48-1.341c2.138.59 3.066 1.947 3.594 3.97a13.933 13.933 0 01-1.962 11.174c-1.165 1.862-2.728 3.288-5.066 3.012s-3.832-2.077-4.476-4.284a27.983 27.983 0 01-.735-3.809zM88.138 155.773c-.238 2.866-.636 4.9-2.123 6.538s-3.365 2.744-5.518 1.74a5.664 5.664 0 01-3.388-5.771 13.566 13.566 0 011.257-4.346c1.418-3.2 3.2-4.261 5.61-3.6a6.674 6.674 0 014.162 5.439zM101.573 158.654c-.038 3.066-2.092 5.794-4.392 5.763-2.529 0-4.8-2.591-4.805-5.419 0-3.066 2.476-6.055 4.959-5.94 2.23.078 4.269 2.768 4.238 5.596zM32.473 143.682a47.7 47.7 0 01-8.109 2.146c-.077-.284-.138-.391-.115-.46 2.307-6.127 2.507-6.173 8.224-1.686zM33.224 133.362a17.1 17.1 0 012.169-1.334c1.165-.483 2.376-2.077 3.472-1.211.927.766.36 2.529.161 3.832a13.587 13.587 0 01-.766 2.223z"/><path d="M47.74 160.448c-.176-5.212-.529-10.431.4-15.612.766.651 0 1.709.613 2.414l.138 14.11a17.194 17.194 0 01.184 3.87c0 .491-.046 1-.766.935l-.215-2.56c-.331-1.026.044-2.139-.354-3.157z" fill="#337283"/><path d="M49.281 140.942a11.818 11.818 0 01-.406 4.146.766.766 0 01-.36-.674c-.107-.943.2-1.916-.215-2.843a6.131 6.131 0 01.383-3.112c.82.682.069 1.74.598 2.483z" fill="#487d75"/><path d="M48.825 136.957c0-.713-.176-1.495.766-1.97.72 1.2.207 2.253-.084 3.311-.64-.253-.272-.981-.682-1.341z" fill="#4f8071"/><path d="M49.5 172.392c-.153-1.134-1.05-2.2-.33-3.694 1.042.766.713 1.74.851 2.544.133.526.563 1.208-.521 1.15z" fill="#457b78"/><path d="M50.584 131.263a4.333 4.333 0 01-1.012 2.889c-.414-1.4.4-2.414.414-3.472.514-.145.782-.015.598.583z" fill="#3e777c"/><path d="M48.821 136.957l.651 1.341-.192 2.644a4.915 4.915 0 01-.6-2.483z" fill="#447b78"/><path class="p" d="M48.874 165.552v-4.185a12.263 12.263 0 01.414 4.254c-.176.283-.314.245-.414-.069z"/><path d="M48.874 165.552a2.008 2.008 0 00.429.069c.092.682.46 1.609-.468 1.793-.674.123-.521-.766-.529-1.242z" fill="#3f787c"/><path d="M50.584 131.262l-.6-.582c0-.766.077-1.433.95-1.74a2.353 2.353 0 01-.35 2.322z" fill="#90a047"/><path d="M49.495 172.396l.521-1.15a3.572 3.572 0 01.552 2.5c-.927-.109-.874-.83-1.073-1.35z" fill="#7c9754"/><path d="M48.284 141.571c.667.866.322 1.847.291 2.782l-.376.046z" fill="#085d9f"/><path d="M48.215 144.399l.376-.046c.1.245.192.491.284.766-.038.72-.084 1.441-.123 2.161l-.613-2.414a.33.33 0 01.077-.468z" fill="#196595"/><path class="p" d="M47.74 160.448a4.509 4.509 0 01.353 3.158 5.771 5.771 0 01-.353-3.158z"/><path class="f" d="M58.148 54.958a12.923 12.923 0 012.8-7.879 5.181 5.181 0 015.6-1.855 5 5 0 013.83 4.109 13.7 13.7 0 01-2.154 11.381c-2.805 4.054-6.967 3.671-9.113-.766-.787-1.659-.603-3.503-.963-4.99zM86.743 53.908a9.2 9.2 0 01-1.288 5.028c-1.334 1.985-2.882 3.709-5.587 2.958s-3.832-2.759-4.116-5.281a10.025 10.025 0 011.847-6.79 4.6 4.6 0 015.5-1.947c2.977 1.012 3.568 3.48 3.644 6.032zM101.052 56.314c-.184 3.181-2.514 5.733-5 5.488a5.426 5.426 0 01-4.848-5.434c.169-3 2.767-5.748 5.365-5.671s4.652 2.76 4.483 5.617zM36.535 39.246a7.841 7.841 0 01-1.786 6.384c-1.648 1.839-3.832 1.847-5.365 0a7.005 7.005 0 01-1.214-7.235c1.012-2.667 3.188-4.177 5.771-5.1 1.173-.422 1.747.422 1.931 1.472.265 1.483.448 2.985.663 4.479z"/><path d="M45.28 52.69c.146 1.234.4 2.483-.544 3.625a50.392 50.392 0 01-.452-12.194c1.28.138.713 1.134.766 1.763.168 2.261-.238 4.552.23 6.806z" fill="#337383"/><path d="M45.28 52.689c-.95-1.778-.33-3.7-.491-5.557-.092-1.019.161-2.085-.506-3.012a8.369 8.369 0 01.429-4.139c.544.245.215.92.605 1.242q-.022 5.741-.037 11.466z" fill="#367481"/><path d="M45.985 61.181l1.1 5.717c-1.617-1.2-1.609-2.843-1.709-4.468.41-.345.08-1.004.609-1.249z" fill="#39757f"/><path d="M45.985 61.182l-.613 1.249c-.2-1.533-1.1-3 .253-5.365.184 1.885.283 2.997.36 4.116z" fill="#116199"/><path d="M44.858 37.269a2.069 2.069 0 01.766-2.23 8.852 8.852 0 01-.245 5.127c-.727-.858.031-2-.521-2.897z" fill="#4b7f73"/><path d="M47.97 71.288c-.889-.981-1.6-1.924-1.042-3.625a4.9 4.9 0 011.042 3.625z" fill="#71915b"/><path d="M46.606 30.433c-.184 1.257.123 2.613-1.28 3.686l.7-4.277c.526-.122.802-.007.58.591z" fill="#307185"/><path d="M46.605 30.433l-.582-.59a6.285 6.285 0 011.456-3.526 7.469 7.469 0 01-.874 4.116z" fill="#789556"/><path d="M44.859 37.269c.728.858.161 1.97.544 2.9l-.084 1.058-.605-1.242c.045-.892.099-1.812.145-2.716z" fill="#0b5e9d"/><path d="M30.327 39.576c.13-1.2-.192-3.656 1.947-3.648 2.3 0 1.533 2.537 1.724 4.077a4.054 4.054 0 01-.161 1.678c-.291 1.05-.766 2.008-2.1 1.885s-1.272-1.2-1.4-2.123a17.857 17.857 0 01-.008-1.87z" fill="#f7d604"/></svg>