<svg xmlns="http://www.w3.org/2000/svg" width="193.055" height="193.037"><defs><style>.a{fill:#fed900}.b{fill:#e07000}</style></defs><path class="a" d="M98.104 118.002c2.231-2.054 4.949-2.316 7.906-.726a12.283 12.283 0 015.219 5.605 85.468 85.468 0 006.709 11.426c2.038 2.942 4.949 2.918 6.948-.054 1.606-2.386 3.227-4.779 4.632-7.288a5.767 5.767 0 015.705-3.173 15.132 15.132 0 018.261 3.088c1.444 1.112 2.463 2.687 1.413 4.517s-2.733 1.953-4.563 1.428c-1.544-.456-3.088-1.2-4.748-1.073-.587.046-1.2.2-1.3.88-.085.564.448.772.857 1.042 1.32.772 2.7 1.475 3.968 2.316 1.544 1.035 2.586 2.54 2.015 4.408-.61 2-2.471 1.39-3.945 1.3-1.922-.124-3.86-.371-5.744-.5-.571-.039-1.243.108-1.374.772s.417 1.019.95 1.282a17.033 17.033 0 012.316 1.112c1.32.9 1.976 2.254 1.212 3.737s-2.162 1.544-3.528 1.065a29.483 29.483 0 01-3.351-1.675c-2.023-1.065-3.86-1.814-6.107-.085-1.675 1.3-3.513.378-4.949-.942-.849-.772-1.544-1.722-2.386-2.5-.61-.571-1.382-1.475-2.216-.926-.973.641-.124 1.6.255 2.278a32.835 32.835 0 003.088 4.841 28.141 28.141 0 015.868 11.156c.726 2.81 2.71 3.559 5.281 3.235a27.338 27.338 0 009.473-3.335 66.682 66.682 0 0027.911-27.539c5.049-9.334 9.882-18.676 11.048-29.477a70.371 70.371 0 00-3.389-31.824c-3.726-10.268-7.911-20.231-11.586-30.431-8.045-22.181-24.551-33.2-47.2-36.448a50.253 50.253 0 00-12.649-.252c-4.516.494-9.025 0-13.534-.255-.733 0-1.822.147-1.984-.772-.193-1.1.934-1.32 1.737-1.544 5.142-1.329 10.415-1.612 15.672-2.129 13.835-1.382 27.431 0 40.965 2.764 6.393 1.359 11.488 5.219 15.966 9.411 13.4 12.623 23.71 27.462 29.855 44.964 2.27 6.47 2.864 13.318 3.4 20.127a219.921 219.921 0 01-.317 42.594c-.772 6.717-4.115 12.77-6.856 18.908a245.879 245.879 0 01-17.394 32.179 14.052 14.052 0 01-3 3.474 139.029 139.029 0 01-14.885 10.361c-6.346 3.9-13.411 5.065-20.567 6.091-10.886 1.544-21.795 2.223-32.766.965a52.36 52.36 0 01-14.416-3.952c-4.787-2.015-9.566-1.614-14.391-.278a20.074 20.074 0 01-3.629.834c-2.579.178-3.436-.88-3.088-3.482.162-1.3.88-2.833-.448-3.76-1.544-1.073-2.9.162-4.208.926a15.34 15.34 0 01-2.177 1.367 3.389 3.389 0 01-3.76-.679c-1.042-1.019-.9-2.262-.44-3.49a10.593 10.593 0 01.888-1.807c1.312-2.131.147-2.532-1.683-2.424a16.43 16.43 0 00-2.27.394c-1.544.332-3.135.409-4.138-1.143a4.632 4.632 0 01-.046-5.18 7.3 7.3 0 019.8-2.787 35.236 35.236 0 019.543 6.894c3.575 3.86 8.207 3.737 12.855 3.474 1.629-.1 1.544-1.212.726-2.216a8.284 8.284 0 00-1.915-1.328c-10.809-6.987-22.065-13.364-31.492-22.274a81.382 81.382 0 01-19.627-28.518c-2.679-6.539-1.668-13.434-1-20.228.077-.772.232-1.544.363-2.278 2.316-13.341.957-9.774 12.353-17.116 1.691-1.1 2.648-.849 2.61 1.428-.039 2.4.046 4.8.124 7.2a2.664 2.664 0 001.55 2.567c1.212.556 2.054-.154 2.81-.888a65.95 65.95 0 0111.21-8.57c2.123-1.3 3.559-1.243 5.034.919 2.517 3.675 5.937 6.532 9.1 9.62 1.814 1.768 3.86 1.66 5.458-.417s2.841-4.331 4.231-6.516c2.131-3.374 2.471-3.428 5.752-.957 3.088 2.316 5.914 4.91 9.6 6.284 1.073.4 2.1 1.228 3.25.533 1.343-.818.865-2.239.733-3.42-.332-3.15-.818-6.284-1.158-9.434-.1-.9-.363-2.123.687-2.594 1.189-.517 2 .494 2.586 1.336 1.49 2.123 2.81 4.354 4.293 6.485 2.254 3.235 2.972 3.3 6.732 1.845 5.752-2.224 9.774-6.74 14.3-10.562 4.308-3.644 7.566-2.965 9.527 2.432.818 2.262 1.822 4.455 2.517 6.748.54 1.783.772 3.86-1.328 4.787s-3.3-.772-4.231-2.432c-.286-.5-.556-1.011-.834-1.544-.44-.772-.965-1.505-2.007-1.3a1.961 1.961 0 00-1.583 2.123c0 1.822.116 3.652.085 5.474 0 1.351-.108 2.841-1.791 3.227-1.459.34-2.27-.695-2.98-1.791-.378-.594-.556-1.637-1.606-1.235-.826.317-.888 1.2-1 1.953-.131.95-.139 1.922-.247 2.872-.139 1.15-.193 2.44-1.637 2.71-1.189.224-1.969-.618-2.625-1.475-3.142-4.154-3.127-4.154-7.118-.7a29.538 29.538 0 01-2.486 1.961c-5.18 3.737-6.663 3.7-11.681-.232-.456-.355-.9-.71-1.367-1.058-.726-.556-1.544-.965-2.362-.309s-.517 1.5-.262 2.362c.888 2.926 2.988 5.126 4.493 7.72 2.949 5.011 3.436 10.739 4.848 16.213.262 1.011.649 1.992.973 2.988 2.239 1.421 1.181 4.138 2.247 5.744a34.263 34.263 0 01-1.405-7.782.679.679 0 00-.062-.409c-.772-1.66-.772-3.49-1.135-5.235a4.848 4.848 0 01.063-3.998z"/><path class="a" d="M40.679 32.583c.88.54 1.127.679 1.359.842 1.112.726 3.289.826 2.61 2.764-.579 1.644-2.517 1.089-3.86 1.019-1.714-.085-3.4-.772-5.111-.772-3.49-.062-10.353 4.933-11.643 8.176-.525 1.328.046 1.776 1.235 1.892a14.491 14.491 0 006.223-.919c8.716-3.088 17.657-5.4 26.574-7.721a6.84 6.84 0 005.072-4.4c4.254-9.851 12.306-14.669 22.675-15.827 2.169-.239 3.026-.772 3.088-3.011a15.364 15.364 0 011.15-5.026c1.05-2.617 3.2-3 5.265-1.073a23.611 23.611 0 015.4 8.415 5.273 5.273 0 002.316 2.772A28.762 28.762 0 01116.6 35.925a54.491 54.491 0 013.091 12.558c.594 5.4-1.714 7.3-6.894 5.86q-4.725-1.312-9.473-2.5c-.695-.17-1.776-.5-2.038.386-.309 1.058.772 1.467 1.606 1.6a27.438 27.438 0 015.968 1.428 3.414 3.414 0 012.517 3.165c.062 1.675-1.011 2.6-2.393 3.25a8.184 8.184 0 01-3.644.9c-3.366 0-6.732.046-10.091-.131a12.353 12.353 0 01-8.662-4.015c-.664-.71-1.467-2.038-2.555-1.042a2.247 2.247 0 00.085 3.165c8.068 7.937 6.809 18.784 9.033 28.566.124.548.224 1.2-.417 1.544s-1.1-.139-1.544-.432q-5.142-3.181-10.276-6.393c-2.185-1.367-3.783-1.235-5.065 1.39-1.436 2.942-3.93 5.2-5.883 7.805-1.011 1.351-1.66.664-2.509-.124a56.738 56.738 0 01-8.122-9.689c-2.27-3.343-4.061-3.667-7.419-1.312s-6.725 5.119-10.083 7.721c-.594.456-1.2 1.282-1.961.98-.973-.386-.649-1.49-.679-2.316-.093-2.316 0-4.632-.2-6.91-.224-2.617-1.367-3.273-3.66-2.015-2.942 1.614-5.759 3.467-8.616 5.227-.772.456-1.405 1.011-2.154 1.436-.988.564-2.054 1.359-3.181.448s-.7-2.092-.456-3.219a75.661 75.661 0 019.115-22.965c.44-.726 1.212-1.444.463-2.316s-1.791-.448-2.671-.124c-6.346 2.4-12.754 4.215-19.672 3.675-3.16-.243-6.006-.81-7.319-4.053-1.444-3.582-1.135-7 1.745-9.836a174.437 174.437 0 0139.792-29.3c4.563-2.463 9.782-1.5 14.754-1.1 1.66.139 2.247 1.544 2.2 3.219-.077 1.969-1.312 2.741-2.972 2.926-2.579.27-5.18.3-7.767.51a7.836 7.836 0 00-2.486.579 1.737 1.737 0 00-1.274 1.737c.124.911 1.035.633 1.629.818a6.277 6.277 0 011.868.695c1.05.772 2.478 1.606 2.023 3.165s-2.046 1.1-3.235 1.112c-1.86.013-3.76-.315-6.439.585z"/><path class="b" d="M88.192 33.122c.224-1.158.448-2.679.772-4.169.193-.818.479-1.822 1.668-1.544s.926 1.212.772 2.092c-.3 1.7-.5 3.412-.818 5.111-.139.726.494 2-.919 1.969-1 0-1.251-1.065-1.4-1.938-.029-.386-.021-.772-.075-1.521zM97.912 35.462a28.806 28.806 0 01.054-3.165c.085-.772-.888-2.224.772-2.1a2.061 2.061 0 011.93 2.671 10.26 10.26 0 01-2.108 4.362c-1.436-.139-.764-1.065-.648-1.768z"/><path d="M97.911 35.462c.208.587.417 1.181.633 1.768-.2.309-.54.772-.818.463-.695-.741-.131-1.505.185-2.231z" fill="#f79712"/></svg>