<svg xmlns="http://www.w3.org/2000/svg" width="177.371" height="192.2"><defs><style>.a{fill:#fed900}</style></defs><path class="a" d="M155.488 128.852c2.885-.894 4.965-3 7.2-4.876a21.944 21.944 0 014.266-3.381c1.121-.544 2.34-.935 3.462-.2s1.105 2.064.967 3.3a15.091 15.091 0 01-1.625 4.535c-4.421 9.752-12.434 15.66-21.584 20.43-13.238 6.9-27.33 11.588-41.389 16.408-6.818 2.34-13.628 4.551-20.942 4.453-.918 0-2.024 0-2.007 1.251 0 1.138 1.1 1.4 1.975 1.5 1.4.154 2.828.089 4.242.138a12.052 12.052 0 0111.231 14.79c-.358 1.52-1.211 2.682-2.8 2.771-4.5.26-8.7-.276-11.467-4.567-1.625-2.5-2.942-2.7-5.16-.772-1.9 1.625-3.559 3.592-5.4 5.323-2.381 2.243-5.518 2.844-7.793 1.625-2.852-1.544-3.186-3.738-.967-6.111.675-.715 1.625-1.146 2.072-2.381-1.869-1-3.494-.1-5.055.626a22.2 22.2 0 01-6.867 2.284 6.42 6.42 0 01-7.151-4.307c-.991-2.657.163-5.169 3.145-7.094a11.922 11.922 0 017.247-1.687 13.677 13.677 0 007.574-1.812 7.2 7.2 0 00-4.722-2.4c-7.371-1.219-14.888-1.365-22.145-3.47-13.523-3.909-22.819-12.068-28.224-25.274-5.819-14.2-6.867-28.329-2.089-42.9a44.356 44.356 0 0115.05-21.178 23.477 23.477 0 005.087-4.738 2.048 2.048 0 00.333-2.275c-.585-.959-1.463-.325-2.186-.13a18.471 18.471 0 00-3.454 1.154c-5.867 2.917-10.3.5-14.287-3.714-2.056-2.178-2.292-4.876-2.1-7.655a2.169 2.169 0 012.519-2.064 5.876 5.876 0 013.324 1.308c4.112 2.909 9.809 2 13.49-2.243-1.959-.813-3.657 0-5.169.813-3.511 1.967-6.5 1.39-9.4-1.235a20.586 20.586 0 00-1.701-1.229c-1.625-1.235-2.576-.813-3.324 1.105s-.954 4.592-3.576 4.787-3.153-2.6-4.169-4.275c-5.177-8.517.683-19.78 11-20.877a59.969 59.969 0 0012.769-2.283 6.331 6.331 0 016.68 1.674c3.389 3.251 7.867 4.876 11.857 7.241a24.148 24.148 0 018.59 9.142c1.512 2.609 1.081 4.925-.455 7.371-1.9 3.031-4.356 5.77-5.689 9.646 1.763-.382 2.389-1.625 3.251-2.438 4.535-4.161 9.508-7.858 13-13.084 1.195-1.78 1.357-3.023 0-4.811-3.1-4.242-5.754-8.785-9.061-12.9-5.924-7.355-10.061-8.565-19-5.234-1.422.528-2.828 1.1-4.283 1.479-.967.252-2.194.309-2.828-.536s0-1.967.618-2.755c5.331-7.01 11.694-12.568 20.634-14.429 10.1-2.129 21.064 3.056 26.891 12.409 7.119 11.45 6.989 23.079 1.211 34.944-1.235 2.535-2.438 5.087-3.8 7.582a2.917 2.917 0 00-.049 3.137c.658 1.073 1.731.983 2.714.813a16.521 16.521 0 007.367-3.366c8.127-6.184 11.377-14.717 11.922-24.542.626-12.247-1.178-24.063-7.5-34.733-2.064-3.462.114-6.4 3.779-6.761 3.446-.349 6.615.756 9.606 2.284 14.929 7.655 24.25 19.666 28.272 35.976 3.706 15.05 2.438 29.662-2.942 44.087-1.942 5.217-3.73 10.475-6.607 15.278-3.438 5.737-8.021 10.077-14.587 12.076a21.877 21.877 0 01-3.251.414 3.47 3.47 0 00-1.593 6.355c2.934 2.08 6.038 2.316 8.939.073 7.314-5.689 13.937-11.987 18.813-19.983a42.127 42.127 0 014.128-5.6c2.227-2.56 5.339-3.389 7.241-2.162a7.689 7.689 0 012.714 8.346c-1.2 3.714-3.608 6.745-5.607 10.012-.9 3.86-4.177 5.892-6.144 8.127 2.438-1.625 3.958-4.941 6.883-6.924 4.348-4.681 8.354-9.484 9.216-16.253.471-3.754 2.731-5.542 5.762-5.355 2.438.154 5.193 3.072 5.485 6.038a20.5 20.5 0 01-4.876 15.4c-.179.358-.341.764.1.991a.813.813 0 00.975-.366c1.772-1.934 3.494-3.917 5.331-5.794 2.519-2.576 4.827-2.015 5.778 1.414a16.253 16.253 0 01-2.974 14.863c-1.91 2.519-4.494 4.34-6.794 6.452-2.064 2.552-5.038 3.909-7.606 5.8-.577.325-1.243.471-1.8.813q-.268.146-.536.268c.268-.13.536-.268.813-.423a14.628 14.628 0 001.788-.813c2.524-1.392 4.592-3.651 7.424-4.716z"/><path class="a" d="M93.146 38.89c-.276 3.015-.512 6.144-.861 9.248-1.008 8.825-5.5 15.44-12.9 20.195a10.329 10.329 0 01-1.918.9c-.536.211-1.1.609-1.682.073-.756-.691-.211-1.317.171-1.869a52.367 52.367 0 005.3-9.841c6.03-15.01 2.519-34.709-13.238-45.167-5.919-3.916-12.819-4.062-19.666-2.664a31.7 31.7 0 00-21.779 15.44c-.609 1.016-1.089 2.438-2.609 2.056-1.625-.439-1.5-2.024-1.406-3.3.544-7.883 5.185-13.141 11.377-17.334C40.299 2.248 47.507.436 55.099.07a69.36 69.36 0 0116.593 1.251A19.209 19.209 0 0181.72 7.14c8.663 8.856 11.263 19.764 11.426 31.75zM177.361 107.755c-.089 2.316.163 4.657-.447 6.94-.228.813-.366 1.975-1.447 2.032s-1.43-.935-1.812-1.8q-3.251-7.314-6.461-14.693c-2.2-5.006-5.12-9.549-10.109-12.076-7.777-3.933-15.611-3.039-23.331.512-1.5.691-3.161 2.731-4.551 1.52-1.56-1.357.349-3.324.813-4.982 1.625-5.932 3.429-11.8 5.047-17.732.544-2.015 1.625-2.649 3.665-2.747 14.815-.723 25.371 6.046 32.433 18.61a47.37 47.37 0 016.2 24.416z"/><path d="M47.368 34.039c-.1 4.665-1.625 5.689-5.786 3.6a20.357 20.357 0 01-6.217-4.21c-1.365-1.512-1.243-2.763.813-3.324a40.056 40.056 0 015.6-1.162c4.006-.499 5.68 1.122 5.59 5.096z" fill="#fdd801"/></svg>